<svg id="Layer_1" data-name="Layer 1" xmlns="http://www.w3.org/2000/svg" viewBox="0 0 512 512"><defs><style>.cls-1{fill:#141f38;}</style></defs><title>users-chat-bubble-glyph</title><path class="cls-1" d="M426.66,328.21a52.47,52.47,0,0,1,28.6,96.49c25.46,8.35,46.2,27.57,55.28,53h0a24.64,24.64,0,0,1-3.21,22.74A27.59,27.59,0,0,1,484.75,512H368.58A27.59,27.59,0,0,1,346,500.42a24.63,24.63,0,0,1-3.21-22.74c9.08-25.41,29.82-44.64,55.28-53a52.47,52.47,0,0,1,28.6-96.49ZM20.36,512H97.8a20.59,20.59,0,0,0,16.85-8.65,18.59,18.59,0,0,0,2.4-17.15,60.06,60.06,0,0,0-35.54-35.71,32.82,32.82,0,1,0-44.89,0A60.07,60.07,0,0,0,1.1,486.2a18.59,18.59,0,0,0,2.4,17.15A20.59,20.59,0,0,0,20.36,512Zm97.8-199.68V361a6.48,6.48,0,0,0,4.07,6,5.5,5.5,0,0,0,2.49.53,6.61,6.61,0,0,0,4.66-1.9l50.54-50.61H256a72.25,72.25,0,0,0,72.2-72.21v-6.56H229.74A85.41,85.41,0,0,1,144.41,151V118.15h-6.56a72.25,72.25,0,0,0-72.2,72.21v52.51A72.41,72.41,0,0,0,118.16,312.32ZM157.54,151V72.21A72.29,72.29,0,0,1,229.74,0H387.28a72.29,72.29,0,0,1,72.2,72.21V151A72.44,72.44,0,0,1,407,220.46v48.67a6.56,6.56,0,0,1-11.2,4.64l-50.59-50.59H229.74A72.29,72.29,0,0,1,157.54,151Zm78.77-65.64a6.56,6.56,0,0,0,6.56,6.56H374.15a6.56,6.56,0,0,0,0-13.13H242.87A6.56,6.56,0,0,0,236.31,85.33Zm0,52.51a6.56,6.56,0,0,0,6.56,6.56h39.38a6.56,6.56,0,0,0,0-13.13H242.87A6.56,6.56,0,0,0,236.31,137.85Z"/></svg>